<svg width="20" height="20" viewBox="0 0 25 25" fill="none" xmlns="http://www.w3.org/2000/svg">
<g clip-path="url(#clip0_392_66)">
<path d="M12.5 0.30957C5.59375 0.30957 0 5.90645 0 12.8096C0 18.3335 3.58125 23.0179 8.54688 24.6689C9.17188 24.7867 9.40104 24.4002 9.40104 24.0679C9.40104 23.771 9.39062 22.9846 9.38542 21.9429C5.90833 22.6971 5.175 20.2658 5.175 20.2658C4.60625 18.8231 3.78437 18.4377 3.78437 18.4377C2.65208 17.6627 3.87187 17.6783 3.87187 17.6783C5.12708 17.7658 5.78646 18.9658 5.78646 18.9658C6.90104 20.8773 8.7125 20.3252 9.42708 20.0054C9.53958 19.1971 9.86146 18.646 10.2188 18.3335C7.44271 18.021 4.525 16.946 4.525 12.1564C4.525 10.7919 5.00937 9.67728 5.81146 8.80228C5.67083 8.48665 5.24896 7.21582 5.92083 5.49395C5.92083 5.49395 6.96771 5.15853 9.35833 6.7752C10.3583 6.49707 11.4208 6.35957 12.4833 6.35332C13.5458 6.35957 14.6083 6.49707 15.6083 6.7752C17.9833 5.15853 19.0302 5.49395 19.0302 5.49395C19.7021 7.21582 19.2802 8.48665 19.1552 8.80228C19.9521 9.67728 20.4365 10.7919 20.4365 12.1564C20.4365 16.9585 17.5146 18.0158 14.7333 18.3231C15.1708 18.6981 15.5771 19.4648 15.5771 20.6356C15.5771 22.3085 15.5615 23.6523 15.5615 24.0585C15.5615 24.3867 15.7802 24.7773 16.4208 24.6523C21.4219 23.0127 25 18.3252 25 12.8096C25 5.90645 19.4031 0.30957 12.5 0.30957Z" fill="#333333"/>
</g>
<defs>
<clipPath id="clip0_392_66">
<rect width="25" height="25" fill="white"/>
</clipPath>
</defs>
</svg>
